# xmcd
#
# Track frame offsets:
#	150
#	35615
#	44272
#	73182
#	83152
#	113335
#	166012
#	176385
#	202065
#	247167
#	254725
#	271047
#	281232
#
# Disc length: 4509 seconds
#
# Revision: 1
# Processed by: cddbd v1.5.1PL0 Copyright (c) Steve Scherf et al.
# Submitted via: CDex 1.50Beta5
#
DISCID=ba119b0d
DTITLE=関智一 - 火魅子伝〜恋解〜オリジナル・ドラマ 耶麻台歳時記
DYEAR=1999
DGENRE=
TTITLE0=九峪的冬の雪坂遊戯 その壱
TTITLE1=九峪的冬の雪坂遊戯 その弐
TTITLE2=九峪的冬の雪坂遊戯 その参
TTITLE3=愛の小劇場 1
TTITLE4=九峪的春の花見の宴 その壱
TTITLE5=九峪的春の花見の宴 その弐
TTITLE6=愛の小劇場 2
TTITLE7=九峪的夏の波乗り遊戯 その壱
TTITLE8=九峪的夏の波乗り遊戯 その弐
TTITLE9=愛の小劇場 3
TTITLE10=九峪的秋の松茸狩り その壱
TTITLE11=九峪的秋の松茸狩り その弐
TTITLE12=九峪的秋の松茸狩り その参
EXTD=
EXTT0=
EXTT1=
EXTT2=
EXTT3=
EXTT4=
EXTT5=
EXTT6=
EXTT7=
EXTT8=
EXTT9=
EXTT10=
EXTT11=
EXTT12=
PLAYORDER=
